<?xml version="1.0" standalone="no"?>
<!DOCTYPE svg PUBLIC "-//W3C//DTD SVG 20010904//EN"
 "http://www.w3.org/TR/2001/REC-SVG-20010904/DTD/svg10.dtd">
<svg version="1.0" xmlns="http://www.w3.org/2000/svg"
 width="16.000000pt" height="16.000000pt" viewBox="0 0 16.000000 16.000000"
 preserveAspectRatio="xMidYMid meet">
<metadata>
Created by potrace 1.11, written by Peter Selinger 2001-2013
</metadata>
<g transform="translate(0.000000,16.000000) scale(0.004444,-0.004444)"
fill="#000000" stroke="none">
<path d="M2607 3594 c-1 -1 -27 -5 -57 -8 -57 -7 -95 -13 -95 -16 0 -1 -13 -4
-29 -6 -16 -3 -42 -12 -59 -20 -16 -9 -38 -17 -49 -19 -24 -5 -150 -101 -204
-157 -54 -55 -124 -193 -173 -341 -22 -64 -38 -117 -36 -117 2 0 -3 -17 -11
-37 -9 -20 -17 -44 -19 -52 -2 -9 -10 -42 -20 -73 -9 -32 -14 -62 -10 -68 3
-5 2 -10 -3 -10 -5 0 -9 -6 -10 -12 -1 -19 -7 -39 -20 -71 -13 -32 -41 -146
-48 -196 -5 -40 -9 -62 -28 -159 -3 -12 -8 -27 -12 -34 -4 -6 -8 -37 -10 -67
-1 -31 -7 -76 -14 -101 -7 -25 -14 -58 -16 -75 -1 -16 -11 -55 -22 -85 -16
-46 -25 -58 -63 -78 -24 -12 -59 -32 -77 -42 -18 -11 -37 -20 -42 -20 -4 0 -6
44 -3 98 7 126 6 220 -1 257 -45 226 -68 273 -168 341 -24 16 -45 32 -48 35
-11 15 -109 42 -160 45 -139 7 -311 -107 -431 -287 l-27 -41 -17 54 c-28 85
-47 114 -155 228 l-35 37 -75 -3 c-41 -2 -113 -5 -160 -5 -98 -2 -129 -11
-129 -36 -1 -123 0 -156 5 -165 4 -6 9 -23 10 -37 5 -34 9 -52 17 -76 6 -20
15 -61 22 -100 2 -11 6 -33 10 -50 8 -36 13 -192 21 -680 3 -203 8 -419 9
-480 2 -60 4 -204 4 -320 1 -195 -2 -274 -14 -414 -5 -53 -4 -55 37 -93 l41
-38 97 0 c110 0 119 5 143 80 31 92 33 114 42 355 3 83 8 188 11 235 3 47 7
146 9 220 2 119 8 202 21 330 2 19 6 89 9 155 4 99 10 162 20 195 19 65 28
100 32 123 15 95 85 268 117 289 6 4 7 8 3 8 -9 0 2 14 51 66 17 20 32 38 32
40 0 11 88 104 99 104 19 0 43 -29 51 -64 4 -21 6 -140 4 -264 -5 -275 -6
-292 -17 -292 -4 0 -6 -4 -3 -9 4 -5 -1 -42 -10 -83 -8 -40 -16 -81 -17 -90
-1 -10 -38 -56 -83 -103 -56 -59 -86 -99 -96 -129 -16 -49 -23 -149 -12 -168
4 -7 9 -23 10 -36 6 -50 79 -91 155 -88 58 2 197 47 241 78 14 10 31 18 36 18
9 0 34 26 83 87 40 50 150 308 175 412 l17 71 63 29 c102 48 102 48 95 4 -8
-48 -6 -805 2 -826 3 -8 31 -27 61 -41 46 -22 67 -26 114 -23 31 3 71 10 87
17 17 7 37 15 45 17 23 5 94 16 107 16 15 0 24 27 29 82 10 106 15 143 35 244
13 62 18 93 23 136 2 17 5 30 6 30 1 0 3 16 5 36 3 44 15 100 23 114 4 6 7 15
8 20 2 9 42 95 69 146 5 11 13 19 17 19 5 0 8 5 8 10 0 11 9 22 79 100 27 30
53 51 57 47 10 -10 22 -107 13 -107 -4 0 -5 -9 -2 -19 3 -11 0 -44 -7 -73 -17
-75 -21 -105 -23 -149 -1 -21 -4 -39 -7 -39 -3 0 -6 -21 -7 -48 -1 -26 -4 -76
-8 -112 -3 -36 -7 -143 -9 -238 -4 -188 6 -243 53 -293 11 -13 21 -26 21 -29
0 -10 110 -75 145 -87 17 -5 41 -9 55 -7 14 1 66 5 115 9 89 7 180 40 226 81
8 8 19 14 23 14 11 0 28 19 63 70 17 25 39 55 49 67 43 50 54 63 49 63 -2 0 8
21 23 47 24 40 70 152 79 188 1 6 25 73 53 150 57 155 69 191 75 219 3 10 11
37 19 60 13 34 32 101 42 141 1 6 20 56 42 112 44 112 54 157 41 190 -7 19
-14 21 -50 17 -70 -9 -115 -80 -169 -267 -40 -140 -47 -158 -102 -277 -20 -41
-52 -115 -73 -165 -66 -162 -86 -209 -109 -255 -81 -160 -154 -272 -189 -287
-12 -5 -33 -7 -47 -3 -39 9 -49 56 -43 195 3 66 6 146 7 177 0 32 3 58 6 58 3
0 5 21 6 48 0 26 4 81 9 122 4 41 9 142 10 225 1 120 -2 161 -17 210 -24 80
-67 165 -83 165 -7 0 -15 4 -17 9 -10 30 -147 32 -227 3 -139 -48 -256 -165
-389 -387 l-54 -90 6 90 c3 50 8 101 11 115 6 29 14 90 19 142 2 20 7 41 10
46 9 15 135 102 146 102 6 0 10 4 10 9 0 4 41 29 92 55 51 26 111 61 134 77
24 16 46 29 49 29 6 0 90 60 145 103 54 43 130 97 135 97 9 0 85 78 127 130
20 25 64 74 98 110 64 66 83 101 127 225 26 76 31 115 39 305 4 116 2 133 -25
234 -30 107 -42 130 -107 191 -68 64 -97 81 -127 76 -4 -1 -20 5 -35 12 -15 8
-52 15 -82 16 -30 2 -74 4 -98 5 -23 1 -44 1 -45 0z m262 -196 c63 -65 74
-106 74 -273 1 -82 -3 -165 -7 -184 -14 -67 -70 -186 -106 -226 -21 -22 -39
-45 -41 -51 -11 -32 -268 -302 -363 -382 -44 -37 -123 -92 -132 -92 -5 0 -28
-15 -50 -33 -23 -17 -52 -39 -64 -47 -12 -8 -42 -30 -66 -47 -23 -18 -45 -33
-48 -33 -5 0 22 99 32 115 4 6 7 15 9 20 8 37 13 53 23 80 7 17 14 44 17 60 2
17 18 68 35 115 16 47 31 93 32 102 1 10 5 21 9 24 4 4 7 14 7 21 0 8 12 40
27 71 15 31 28 59 29 62 0 3 15 35 32 72 18 37 32 70 32 73 0 4 11 31 25 60
13 30 27 67 31 82 10 42 45 124 66 156 11 15 16 27 12 27 -4 0 -1 8 7 18 8 9
26 41 39 69 23 52 40 69 110 107 19 10 38 24 42 30 4 6 8 8 8 3 0 -4 17 2 37
13 58 31 104 27 142 -12z m-1972 -2289 c-5 -38 -39 -89 -59 -89 -13 0 -9 17
18 75 31 66 49 72 41 14z"/>
</g>
</svg>
